<svg id="Layer_1" data-name="Layer 1" xmlns="http://www.w3.org/2000/svg" viewBox="0 0 186.88 63.19"><defs><style>.cls-1{fill:#f2f2f2;}</style></defs><title>kabisa white</title><path class="cls-1" d="M129.74,44.68a6.77,6.77,0,0,1-1.77,5,5.34,5.34,0,0,1-4.1,1.6l-7.6,0H112.8a1.68,1.68,0,1,0,0,3.36h8.63a8.24,8.24,0,0,1,0,16.47H104.56a6.76,6.76,0,0,1,1.77-5,5.26,5.26,0,0,1,4.09-1.53h11a1.68,1.68,0,0,0,0-3.37H112.8A8.25,8.25,0,0,1,104.56,53a8.36,8.36,0,0,1,8.25-8.35h16.93Z" transform="translate(-6.98 -8)"/><path class="cls-1" d="M47.61,71.19a13,13,0,0,1-9.45-3.86,13.08,13.08,0,0,1,0-18.71,13.43,13.43,0,0,1,18.91,0A12.67,12.67,0,0,1,61,58v13.2H47.61ZM54.18,58a6.66,6.66,0,0,0-1.9-4.76,6.49,6.49,0,0,0-9.36,0A6.66,6.66,0,0,0,41,58a6.53,6.53,0,0,0,1.92,4.72,6.26,6.26,0,0,0,4.66,2h6.58V58Z" transform="translate(-6.98 -8)"/><path class="cls-1" d="M77,71.19a13,13,0,0,1-9.45-3.89,12.69,12.69,0,0,1-3.94-9.37V38.54a6.77,6.77,0,0,1,5,1.77,5.78,5.78,0,0,1,1.77,4.23v0.18H77a13.09,13.09,0,0,1,9.46,3.85,13.06,13.06,0,0,1,0,18.72A13,13,0,0,1,77,71.19m0-20H70.39v6.69a6.65,6.65,0,0,0,1.9,4.76,6.5,6.5,0,0,0,9.36,0,6.66,6.66,0,0,0,1.9-4.76,6.53,6.53,0,0,0-1.92-4.72,6.25,6.25,0,0,0-4.66-2" transform="translate(-6.98 -8)"/><path class="cls-1" d="M95.33,69.42a5.77,5.77,0,0,1-1.78-4.23V44.74a6.77,6.77,0,0,1,5,1.78,5.77,5.77,0,0,1,1.78,4.23V71.19a6.77,6.77,0,0,1-5-1.77" transform="translate(-6.98 -8)"/><path class="cls-1" d="M145.08,71.19a13,13,0,0,1-9.45-3.86,13.08,13.08,0,0,1,0-18.71,13.43,13.43,0,0,1,18.91,0,12.67,12.67,0,0,1,4,9.37v13.2H145.08ZM151.65,58a6.65,6.65,0,0,0-1.9-4.76,6.49,6.49,0,0,0-9.36,0,6.65,6.65,0,0,0-1.9,4.76,6.54,6.54,0,0,0,1.92,4.72,6.26,6.26,0,0,0,4.66,2h6.58V58Z" transform="translate(-6.98 -8)"/><path class="cls-1" d="M13.76,61.48v9.71H7V44.74a6.78,6.78,0,0,1,5,1.77,5.78,5.78,0,0,1,1.78,4.23V55" transform="translate(-6.98 -8)"/><path class="cls-1" d="M11.92,57.1c14.2,0,12.7-12,12.7-12h6.78S33,63.54,11.92,63.54V57.1Z" transform="translate(-6.98 -8)"/><path class="cls-1" d="M26.8,57.4l6.34,13.78H26.36l-4.62-9.75s-1-5.26,5.07-4" transform="translate(-6.98 -8)"/><path class="cls-1" d="M174.5,61.84h0Z" transform="translate(-6.98 -8)"/><path class="cls-1" d="M186.69,34.48c-5.58-6.42-11.6-9.37-31.43-11.14-14.86-1.33-13.2-5.71-13.2-5.71s7.86-1.35,7.78-8.13c0,0-9-5.13-15.15,3.59-3.47,4.93-.92,11.33.59,13.63,0,0-4.48.37-4.86,6.68-0.4,6.48,5.31,11.24,5.31,11.24S134,35,138.26,33.85c2.27-.58,1.83.8,6.86,3.53,5.6,3.05,9.33.82,9.91,0.71a11.67,11.67,0,0,0,3.87,10.28s2.7-9.33,11-8.89c6.71,0.35,11,2.88,13.65,8a14.06,14.06,0,0,1,1.7,6.9c0,8.57-5.2,11.39-10.26,11.39-3,0-5.87-2.4-5.87-5.37v0c0-2.74,2-3.81,4.06-3.83s3.47,1.14,3.47,2.64a3.28,3.28,0,0,1-2.17,2.64,4,4,0,0,0,3.8-3.78c0-2-2.5-4.8-5.93-4.8s-8,2.36-8,7.72c0,4.27,3.59,10.19,11.59,10.19h0c12,0,17.64-8.11,17.64-19.52l0.22-.14C193.78,46.45,192,40.56,186.69,34.48ZM139.75,12.35a1.38,1.38,0,0,1,1-1.63,1.38,1.38,0,0,1,1.85.47,1.38,1.38,0,0,1-1,1.63A1.38,1.38,0,0,1,139.75,12.35Z" transform="translate(-6.98 -8)"/></svg>